<svg version="1.1" xmlns="http://www.w3.org/2000/svg" xmlns:xlink="http://www.w3.org/1999/xlink" viewBox="0 0 14 12" xml:space="preserve">
	<g>
		<path fill-rule="evenodd" clip-rule="evenodd" fill="#171617" d="M1.1,0.1h11.7c0.6,0,1.1,0.5,1.1,1.1s-0.5,1.1-1.1,1.1H1.1C0.5,2.3,0,1.8,0,1.2S0.5,0.1,1.1,0.1z"/>
		<path fill-rule="evenodd" clip-rule="evenodd" fill="#171617" d="M1.1,4.9h11.7C13.5,4.9,14,5.4,14,6s-0.5,1.1-1.1,1.1H1.1C0.5,7.1,0,6.6,0,6S0.5,4.9,1.1,4.9z"/>
		<path fill-rule="evenodd" clip-rule="evenodd" fill="#171617" d="M1.1,9.7h11.7c0.6,0,1.1,0.5,1.1,1.1c0,0.6-0.5,1.1-1.1,1.1H1.1c-0.6,0-1.1-0.5-1.1-1.1C0,10.2,0.5,9.7,1.1,9.7z"/>
	</g>
</svg>