<svg version="1.1" xmlns="http://www.w3.org/2000/svg" xmlns:xlink="http://www.w3.org/1999/xlink" viewBox="0 0 12 12" xml:space="preserve">
	<path d="M8.6,0c-1,0-2,0.5-2.6,1.3C5.4,0.5,4.4,0,3.4,0C1.5,0,0,1.6,0,3.5c0,1.5,0.9,3.3,2.6,5.3c1.3,1.5,2.8,2.7,3.2,3L6,12l0.2-0.2c0.4-0.3,1.8-1.5,3.2-3c1.7-2,2.6-3.7,2.6-5.3C12,1.6,10.5,0,8.6,0z M8.8,8.3C7.7,9.5,6.6,10.5,6,11c-0.6-0.5-1.7-1.5-2.8-2.7C1.6,6.5,0.8,4.8,0.8,3.5C0.8,2,2,0.8,3.4,0.8c0.9,0,1.8,0.5,2.3,1.4L6,2.9l0.3-0.7c0.5-0.9,1.3-1.4,2.3-1.4c1.4,0,2.6,1.2,2.6,2.7C11.2,4.8,10.4,6.5,8.8,8.3z"/>
</svg>