<svg version="1.1" xmlns="http://www.w3.org/2000/svg" xmlns:xlink="http://www.w3.org/1999/xlink" viewBox="0 0 24 16" xml:space="preserve">
	<g id="vol_max">
		<path fill="#3A3B3B" d="M18.2,15.3c-0.2,0-0.4-0.1-0.6-0.3c-0.3-0.3-0.3-0.9,0-1.2C19.1,12.3,20,10.2,20,8c0-2.2-0.9-4.3-2.4-5.9c-0.3-0.3-0.3-0.9,0-1.2c0.3-0.3,0.9-0.3,1.2,0c1.9,1.9,2.9,4.4,2.9,7.1c0,2.7-1,5.2-2.9,7.1C18.6,15.2,18.4,15.3,18.2,15.3L18.2,15.3z M15.1,13.7c-0.2,0-0.4-0.1-0.6-0.3c-0.3-0.3-0.3-0.9,0-1.2c2.3-2.3,2.3-6.1,0-8.5c-0.3-0.3-0.3-0.9,0-1.2c0.3-0.3,0.9-0.3,1.2,0C17.2,4,18,5.9,18,8c0,2.1-0.8,4-2.3,5.5C15.6,13.6,15.4,13.7,15.1,13.7L15.1,13.7L15.1,13.7z M12.1,12.1c-0.2,0-0.4-0.1-0.6-0.3c-0.3-0.3-0.3-0.9,0-1.2c1.4-1.4,1.4-3.8,0-5.3c-0.3-0.3-0.3-0.9,0-1.2c0.3-0.3,0.9-0.3,1.2,0c2.1,2.1,2.1,5.6,0,7.7C12.5,12,12.3,12.1,12.1,12.1z"/>
		<path fill="#3A3B3B" d="M9.7,16c-0.1,0-0.3-0.1-0.4-0.2l-4.4-4.4h-2c-0.3,0-0.6-0.3-0.6-0.6V5.1c0-0.3,0.3-0.6,0.6-0.6h2l4.4-4.4C9.5,0,9.7,0,9.9,0c0.2,0.1,0.4,0.3,0.4,0.5v14.9c0,0.2-0.1,0.4-0.4,0.5C9.9,16,9.8,16,9.7,16z"/>
	</g>
	<g id="vol_middle">
		<path fill="#4D4D4D" d="M15.8,12.1c-0.2,0-0.4-0.1-0.6-0.3c-0.3-0.3-0.3-0.9,0-1.2c1.4-1.4,1.4-3.8,0-5.3c-0.3-0.3-0.3-0.9,0-1.2c0.3-0.3,0.9-0.3,1.2,0c2.1,2.1,2.1,5.6,0,7.7C16.2,12,16,12.1,15.8,12.1z"/>
		<path fill="#4D4D4D" d="M13.4,16c-0.1,0-0.3-0.1-0.4-0.2l-4.4-4.4h-2c-0.3,0-0.6-0.3-0.6-0.6V5.1c0-0.3,0.3-0.6,0.6-0.6h2L13,0.2C13.2,0,13.4,0,13.6,0C13.9,0.1,14,0.3,14,0.6v14.9c0,0.2-0.1,0.4-0.4,0.5C13.6,16,13.5,16,13.4,16z"/>
	</g>
	<g id="vol_mute">
		<path fill="#525252" d="M15.4,16c-0.1,0-0.3-0.1-0.4-0.2l-4.4-4.4h-2c-0.3,0-0.6-0.3-0.6-0.6V5.1c0-0.3,0.3-0.6,0.6-0.6h2L15,0.2C15.2,0,15.4,0,15.6,0C15.9,0.1,16,0.3,16,0.6v14.9c0,0.2-0.1,0.4-0.4,0.5C15.6,16,15.5,16,15.4,16z"/>
	</g>
</svg>