<svg version="1.1" xmlns="http://www.w3.org/2000/svg" xmlns:xlink="http://www.w3.org/1999/xlink" viewBox="0 0 24 16" xml:space="preserve">
	<g id="msc_playlist">
		<path fill="#545554" d="M5.7,6.2c-0.5,0-0.9,0.2-1.2,0.5C4.2,7.1,4,7.5,4,8c0,0.5,0.2,0.9,0.5,1.3c0.3,0.4,0.7,0.5,1.2,0.5c0.5,0,0.9-0.2,1.2-0.5C7.3,8.9,7.4,8.5,7.4,8c0-0.5-0.2-0.9-0.5-1.3C6.6,6.4,6.2,6.2,5.7,6.2z"/>
		<path fill="#545554" d="M5.7,1.3c-0.5,0-0.9,0.2-1.2,0.5C4.2,2.2,4,2.6,4,3.1c0,0.5,0.2,0.9,0.5,1.3C4.8,4.8,5.2,5,5.7,5c0.5,0,0.9-0.2,1.2-0.5c0.3-0.4,0.5-0.8,0.5-1.3c0-0.5-0.2-0.9-0.5-1.3C6.6,1.5,6.2,1.3,5.7,1.3z"/>
		<path fill="#545554" d="M5.7,11c-0.5,0-0.9,0.2-1.2,0.5C4.2,11.9,4,12.4,4,12.9c0,0.5,0.2,0.9,0.5,1.3c0.3,0.4,0.7,0.5,1.2,0.5c0.5,0,0.9-0.2,1.2-0.5c0.3-0.4,0.5-0.8,0.5-1.3c0-0.5-0.2-0.9-0.5-1.3C6.6,11.2,6.2,11,5.7,11z"/>
		<path fill="#545554" d="M19.9,2c-0.1-0.1-0.1-0.1-0.2-0.1H8.9c-0.1,0-0.1,0-0.2,0.1C8.6,2.1,8.6,2.1,8.6,2.2V4c0,0.1,0,0.2,0.1,0.2c0.1,0.1,0.1,0.1,0.2,0.1h10.9c0.1,0,0.1,0,0.2-0.1C20,4.2,20,4.1,20,4V2.2C20,2.1,20,2.1,19.9,2z"/>
		<path fill="#545554" d="M19.7,6.8H8.9c-0.1,0-0.1,0-0.2,0.1C8.6,6.9,8.6,7,8.6,7.1v1.8c0,0.1,0,0.2,0.1,0.2c0.1,0.1,0.1,0.1,0.2,0.1h10.9c0.1,0,0.1,0,0.2-0.1C20,9.1,20,9,20,8.9V7.1c0-0.1,0-0.2-0.1-0.2C19.9,6.8,19.8,6.8,19.7,6.8z"/>
		<path fill="#545554" d="M19.7,11.6H8.9c-0.1,0-0.1,0-0.2,0.1c-0.1,0.1-0.1,0.1-0.1,0.2v1.8c0,0.1,0,0.2,0.1,0.2c0.1,0.1,0.1,0.1,0.2,0.1h10.9c0.1,0,0.1,0,0.2-0.1c0.1-0.1,0.1-0.1,0.1-0.2V12c0-0.1,0-0.2-0.1-0.2C19.9,11.7,19.8,11.6,19.7,11.6z"/>
	</g>
	<g id="msc_repeat">
		<path fill="#5B5C5C" d="M10.4,7.7c-0.3-0.4-0.9-0.4-1.2,0C8.8,8,8.8,8.6,9.2,9l1.2,1.2H5.2c-1.9,0-3.5-1.6-3.5-3.5c0-1.9,1.6-3.5,3.5-3.5h4c0.5,0,0.9-0.4,0.9-0.9c0-0.5-0.4-0.9-0.9-0.9h-4C2.3,1.3,0,3.7,0,6.6C0,9.6,2.3,12,5.2,12h5.1l-1.2,1.2c-0.3,0.4-0.3,0.9,0,1.3c0.2,0.2,0.4,0.3,0.6,0.3c0.2,0,0.5-0.1,0.6-0.3l2.7-2.7c0.3-0.4,0.3-0.9,0-1.3L10.4,7.7z"/>
		<path fill="#5B5C5C" d="M18.8,4h-5.1l1.2-1.2c0.3-0.4,0.3-0.9,0-1.3c-0.3-0.4-0.9-0.4-1.2,0l-2.7,2.7c-0.3,0.4-0.3,0.9,0,1.3l2.7,2.7c0.2,0.2,0.4,0.3,0.6,0.3c0.2,0,0.5-0.1,0.6-0.3c0.3-0.4,0.3-0.9,0-1.3l-1.2-1.2h5.1c1.9,0,3.5,1.6,3.5,3.5s-1.6,3.5-3.5,3.5h-4c-0.5,0-0.9,0.4-0.9,0.9s0.4,0.9,0.9,0.9h4c2.9,0,5.2-2.4,5.2-5.3C24,6.4,21.7,4,18.8,4z"/>
	</g>
	<g id="msc_shuffle">
		<path fill="#595858" d="M11.3,8.5c0.3-0.7,0.5-1.3,0.7-1.7c0.2-0.3,0.3-0.6,0.4-0.8c0.1-0.2,0.3-0.4,0.5-0.6c0.2-0.2,0.4-0.4,0.7-0.5c0.2-0.1,0.5-0.1,0.8-0.1h2.4v1.9c0,0.1,0,0.2,0.1,0.2C17,7,17.1,7,17.2,7c0.1,0,0.2,0,0.2-0.1l3-3.2c0.1-0.1,0.1-0.1,0.1-0.2c0-0.1,0-0.2-0.1-0.2l-3-3.2C17.3,0,17.2,0,17.2,0c-0.1,0-0.2,0-0.2,0.1c-0.1,0.1-0.1,0.1-0.1,0.2v1.9h-2.4c-0.4,0-0.8,0.1-1.2,0.2c-0.4,0.1-0.7,0.2-1,0.4c-0.3,0.2-0.6,0.4-0.9,0.7c-0.3,0.3-0.5,0.6-0.7,0.8c-0.2,0.3-0.4,0.6-0.6,1C9.8,5.7,9.7,6.1,9.5,6.4C9.4,6.7,9.2,7.1,9.1,7.5C8.8,8.2,8.5,8.8,8.3,9.2C8.2,9.5,8,9.8,7.9,10c-0.1,0.2-0.3,0.4-0.5,0.6C7.2,10.8,7,11,6.7,11.1c-0.2,0.1-0.5,0.1-0.8,0.1H3.8c-0.1,0-0.2,0-0.2,0.1c-0.1,0.1-0.1,0.1-0.1,0.2v1.9c0,0.1,0,0.2,0.1,0.2c0.1,0.1,0.1,0.1,0.2,0.1h2.1c0.4,0,0.8-0.1,1.2-0.2c0.4-0.1,0.7-0.2,1-0.4C8.4,13,8.7,12.8,9,12.5c0.3-0.3,0.5-0.6,0.7-0.8c0.2-0.3,0.4-0.6,0.6-1c0.2-0.4,0.4-0.8,0.5-1.1C11,9.3,11.1,8.9,11.3,8.5z"/>
		<path fill="#595858" d="M3.8,4.8h2.1c0.3,0,0.5,0,0.8,0.1C6.9,5,7.1,5.2,7.3,5.3c0.2,0.1,0.3,0.3,0.5,0.6c0.2,0.2,0.3,0.5,0.4,0.6c0.1,0.2,0.2,0.4,0.4,0.7C9,6,9.4,5.1,9.8,4.5C8.8,3,7.5,2.2,5.9,2.2H3.8c-0.1,0-0.2,0-0.2,0.1C3.5,2.4,3.5,2.5,3.5,2.6v1.9c0,0.1,0,0.2,0.1,0.2C3.6,4.8,3.7,4.8,3.8,4.8z"/>
		<path fill="#595858" d="M17.4,9.1C17.3,9,17.2,9,17.2,9c-0.1,0-0.2,0-0.2,0.1c-0.1,0.1-0.1,0.1-0.1,0.2v1.9h-2.4c-0.3,0-0.5,0-0.8-0.1c-0.2-0.1-0.4-0.2-0.6-0.4c-0.2-0.1-0.3-0.3-0.5-0.6c-0.2-0.2-0.3-0.5-0.4-0.6c-0.1-0.2-0.2-0.4-0.4-0.7c-0.5,1.2-0.9,2.1-1.3,2.7c0.2,0.3,0.3,0.5,0.5,0.7c0.2,0.2,0.4,0.4,0.5,0.5c0.2,0.2,0.4,0.3,0.6,0.4c0.2,0.1,0.4,0.2,0.6,0.3c0.2,0.1,0.4,0.1,0.6,0.2c0.2,0,0.4,0.1,0.6,0.1c0.2,0,0.4,0,0.7,0.1c0.3,0,0.5,0,0.7,0c0.2,0,0.4,0,0.8,0c0.3,0,0.6,0,0.8,0v1.9c0,0.1,0,0.2,0.1,0.2C17,16,17.1,16,17.2,16c0.1,0,0.2,0,0.2-0.1l3-3.2c0.1-0.1,0.1-0.1,0.1-0.2c0-0.1,0-0.2-0.1-0.2L17.4,9.1z"/>
	</g>
</svg>