<svg version="1.1" id="ms_ward" xmlns="http://www.w3.org/2000/svg" xmlns:xlink="http://www.w3.org/1999/xlink" viewBox="0 0 20 15" xml:space="preserve">
	<path fill="#545554" d="M0.1,7.2l9.5-6.7c0.1-0.1,0.2-0.1,0.4,0c0.1,0.1,0.2,0.2,0.2,0.3v6.3l9.3-6.6c0.1-0.1,0.2-0.1,0.4,0C19.9,0.5,20,0.6,20,0.8v13.5c0,0.1-0.1,0.3-0.2,0.3c-0.1,0-0.1,0-0.2,0c-0.1,0-0.1,0-0.2-0.1l-9.3-6.6v6.3c0,0.1-0.1,0.3-0.2,0.3c-0.1,0-0.1,0-0.2,0c-0.1,0-0.1,0-0.2-0.1L0.1,7.8C0.1,7.7,0,7.6,0,7.5C0,7.4,0.1,7.3,0.1,7.2z"/>
	<path fill="#4A494A" d="M19.9,7.2l-9.5-6.7c-0.1-0.1-0.2-0.1-0.4,0C9.9,0.5,9.8,0.6,9.8,0.8v6.3L0.6,0.5c-0.1-0.1-0.2-0.1-0.4,0C0.1,0.5,0,0.6,0,0.8v13.5c0,0.1,0.1,0.3,0.2,0.3c0.1,0,0.1,0,0.2,0c0.1,0,0.1,0,0.2-0.1l9.3-6.6v6.3c0,0.1,0.1,0.3,0.2,0.3c0.1,0,0.1,0,0.2,0c0.1,0,0.1,0,0.2-0.1l9.5-6.7C19.9,7.7,20,7.6,20,7.5C20,7.4,19.9,7.3,19.9,7.2z"/>
</svg>