<svg id="ms_play_pause" version="1.1" xmlns="http://www.w3.org/2000/svg" xmlns:xlink="http://www.w3.org/1999/xlink" viewBox="0 0 20 26" enable-background="new 0 0 20 26" xml:space="preserve">
	<g id="ms_pause" style="display:none;">
		<path d="M8.3,25.1c0,0.5-0.4,0.9-0.9,0.9h-5c-0.5,0-0.9-0.4-0.9-0.9V0.9C1.5,0.4,1.9,0,2.4,0h5c0.5,0,0.9,0.4,0.9,0.9V25.1L8.3,25.1z"/>
		<path d="M18.5,25.1c0,0.5-0.4,0.9-0.9,0.9h-5c-0.5,0-0.9-0.4-0.9-0.9V0.9c0-0.5,0.4-0.9,0.9-0.9h5c0.5,0,0.9,0.4,0.9,0.9V25.1z"/>
	</g>
	<g id="ms_play">
		<path d="M19.2,12.5L1.5,0.1C1.3,0,1,0,0.8,0.1C0.6,0.2,0.5,0.4,0.5,0.6v24.8c0,0.2,0.1,0.4,0.3,0.5C0.9,26,1,26,1.1,26c0.1,0,0.2,0,0.3-0.1l17.8-12.4c0.2-0.1,0.3-0.3,0.3-0.5C19.5,12.8,19.4,12.6,19.2,12.5z"/>
	</g>
</svg>