<svg version="1.1" xmlns="http://www.w3.org/2000/svg" xmlns:xlink="http://www.w3.org/1999/xlink" viewBox="0 0 32 32" xml:space="preserve">
	<g>
		<path fill="#262626" d="M16,0C7.2,0,0,7.2,0,16c0,8.8,7.2,16,16,16c8.8,0,16-7.2,16-16C32,7.2,24.8,0,16,0z M16,30.9C7.8,30.9,1.1,24.2,1.1,16C1.1,7.8,7.8,1.1,16,1.1c8.2,0,14.9,6.7,14.9,14.9C30.9,24.2,24.2,30.9,16,30.9z"/>
		<path fill="#262626" d="M22.2,15.9l-8.7-5.9c-0.1-0.1-0.2-0.1-0.3,0c-0.1,0.1-0.2,0.2-0.2,0.3v11.8c0,0.1,0.1,0.2,0.2,0.3c0,0,0.1,0,0.1,0c0.1,0,0.1,0,0.2-0.1l8.7-5.9c0.1-0.1,0.1-0.1,0.1-0.2C22.4,16.1,22.3,16,22.2,15.9z"/>
	</g>
</svg>