<svg version="1.1" xmlns="http://www.w3.org/2000/svg" xmlns:xlink="http://www.w3.org/1999/xlink" x="0px" y="0px" viewBox="0 0 182 35" enable-background="new 0 0 182 35" xml:space="preserve">
	<path d="M25,13.7h-0.2v-1c0.5-0.3,0.8-0.8,0.8-1.3c0-6.2-5-11.3-11.1-11.3C8.4,0,3.4,5.1,3.4,11.3c0,0.6,0.3,1.1,0.8,1.3v1H4c-2.2,0-4,2.1-4,4.7v1.6c0,2.6,1.8,4.7,4,4.7h1.8l0.2,0.2C6.1,24.9,6.3,25,6.5,25c0.2,0,0.4-0.1,0.5-0.2c0.2-0.2,0.2-0.4,0.2-0.7c0.1-0.2,0.2-0.4,0.2-0.7v-8.6c0-0.6-0.5-1.2-1.1-1.2H5.7v-1c0.5-0.3,0.8-0.8,0.8-1.3c0-4.5,3.6-8.2,8-8.2c4.4,0,8,3.7,8,8.2c0,0.6,0.3,1.1,0.8,1.3v1h-0.6c-0.6,0-1.1,0.5-1.1,1.2v8.6c0,0.3,0.1,0.5,0.2,0.7c0,0.2,0,0.5,0.2,0.7c0.1,0.2,0.3,0.2,0.5,0.2c0.2,0,0.4-0.1,0.5-0.2l0.2-0.2H25c2.2,0,4-2.1,4-4.7v-1.6C29,15.8,27.2,13.7,25,13.7z"/>
	<g>
		<path d="M48.6,10.3v13.6h-3.8V10.3H40V7h13.3v3.3H48.6z"/>
		<path d="M66.9,23.9l-1.6-3.6h-7.1l-1.6,3.6h-4L60,7h3.6l7.3,16.9H66.9z M61.8,12l-2.1,4.9h4.2L61.8,12z"/>
		<path d="M84.7,7h3.8v16.9h-3.8l-8-10.6v10.6h-3.8V7h3.5l8.3,10.9V7z"/>
		<path d="M104.6,23.9l-1.6-3.6H96l-1.6,3.6h-4L97.7,7h3.6l7.3,16.9H104.6z M99.5,12l-2.1,4.9h4.2L99.5,12z"/>
	</g>
	<g fill="#f83f3f">
		<path d="M130.6,24h-1.5V10.3H129l-5.8,13.6h-1.4l-5.8-13.6H116V24h-1.5V7.3h1.8l6.2,14.6h0.1l6.2-14.6h1.8V24z"/>
		<path d="M135.3,18c0,2.8,1.8,4.7,4.9,4.7c3.1,0,4.9-1.9,4.9-4.7V7.3h1.6v10.9c0,3.6-2.5,6.1-6.5,6.1c-4,0-6.5-2.5-6.5-6.1V7.3h1.6V18z"/>
		<path d="M150.6,19.4c0.2,2,2.1,3.4,4.7,3.4c2.5,0,4.3-1.4,4.3-3.2c0-1.6-1.1-2.5-3.6-3.1l-2.1-0.5c-3.1-0.8-4.5-2.1-4.5-4.3c0-2.7,2.4-4.6,5.7-4.6c3.3,0,5.6,1.9,5.7,4.6h-1.6c-0.2-1.9-1.8-3.1-4.2-3.1c-2.3,0-4,1.3-4,3.1c0,1.4,1,2.3,3.5,2.9l1.8,0.5c3.4,0.8,4.8,2.1,4.8,4.5c0,2.9-2.4,4.9-6.1,4.9c-3.5,0-6-1.9-6.1-4.8H150.6z"/>
		<path d="M163.5,24V7.3h1.6V24H163.5z"/>
		<path d="M167.5,15.6c0-5.2,2.9-8.6,7.4-8.6c3.5,0,6.3,2.3,6.8,5.6h-1.6c-0.5-2.4-2.6-4.1-5.2-4.1c-3.5,0-5.8,2.8-5.8,7.1c0,4.4,2.3,7.2,5.8,7.2c2.7,0,4.7-1.4,5.2-3.7h1.6c-0.6,3.3-3.1,5.2-6.8,5.2C170.4,24.2,167.5,20.9,167.5,15.6z"/>
	</g>
	<rect x="40" y="34" width="68.6" height="1"/>
</svg>