<?xml version="1.0" encoding="utf-8"?>
<!-- Generator: Adobe Illustrator 18.0.0, SVG Export Plug-In . SVG Version: 6.00 Build 0)  -->
<!DOCTYPE svg PUBLIC "-//W3C//DTD SVG 1.1//EN" "http://www.w3.org/Graphics/SVG/1.1/DTD/svg11.dtd">
<svg version="1.1" id="Layer_1" xmlns="http://www.w3.org/2000/svg" xmlns:xlink="http://www.w3.org/1999/xlink" x="0px" y="0px"
	 viewBox="0 0 139 29" enable-background="new 0 0 139 29" xml:space="preserve">
<g>
	<path d="M8.6,3.3v13.6H4.8V3.3H0V0h13.3v3.3H8.6z"/>
	<path d="M26.9,16.9l-1.6-3.6h-7.1l-1.6,3.6h-4L20,0h3.6l7.3,16.9H26.9z M21.8,5l-2.1,4.9h4.2L21.8,5z"/>
	<path d="M44.7,0h3.8v16.9h-3.8l-8-10.6v10.6h-3.8V0h3.5l8.3,10.9V0z"/>
	<path d="M64.6,16.9l-1.6-3.6H56l-1.6,3.6h-4L57.7,0h3.6l7.3,16.9H64.6z M59.5,5l-2.1,4.9h4.2L59.5,5z"/>
</g>
<g>
	<path d="M83.6,16.6h-7.1V0.4h6.3c1.1,0,2,0.1,2.8,0.4c0.8,0.3,1.4,0.6,1.8,1.1c0.7,0.8,1.1,1.8,1.1,2.8c0,1.3-0.4,2.2-1.2,2.8
		c-0.3,0.2-0.5,0.4-0.6,0.4s-0.3,0.1-0.6,0.3c1,0.2,1.8,0.7,2.4,1.4c0.6,0.7,0.9,1.5,0.9,2.6c0,1.1-0.4,2.1-1.2,3
		C87.3,16.1,85.8,16.6,83.6,16.6z M79.2,7.1h3.5c2,0,3-0.7,3-2c0-0.8-0.2-1.3-0.7-1.7c-0.5-0.3-1.2-0.5-2.2-0.5h-3.5V7.1z
		 M79.2,14.1h4.3c1,0,1.8-0.2,2.3-0.5s0.8-0.9,0.8-1.8c0-1.4-1.2-2.2-3.5-2.2h-3.9V14.1z"/>
	<path d="M92.8,16.6V0.4h2.7V14h7.4v2.6H92.8z"/>
	<path d="M119.1,14.4c-1.6,1.6-3.7,2.4-6.1,2.4c-2.4,0-4.4-0.8-6.1-2.4c-1.6-1.6-2.5-3.6-2.5-6s0.8-4.4,2.5-6
		c1.6-1.6,3.7-2.4,6.1-2.4c2.4,0,4.4,0.8,6.1,2.4s2.5,3.6,2.5,6S120.7,12.8,119.1,14.4z M117.1,4.2c-1.1-1.1-2.5-1.7-4.1-1.7
		c-1.6,0-3,0.6-4.1,1.7c-1.1,1.1-1.7,2.5-1.7,4.2s0.6,3,1.7,4.2c1.1,1.1,2.5,1.7,4.1,1.7c1.6,0,3-0.6,4.1-1.7
		c1.1-1.1,1.7-2.5,1.7-4.2S118.2,5.4,117.1,4.2z"/>
	<path d="M136.3,8.7h2.7v5.5c-1.5,1.7-3.7,2.5-6.6,2.5c-2.4,0-4.4-0.8-6-2.4c-1.6-1.6-2.4-3.6-2.4-6c0-2.4,0.8-4.4,2.5-6
		s3.6-2.4,6-2.4c2.3,0,4.3,0.7,5.8,2l-1.5,2.1c-0.6-0.5-1.3-0.9-1.9-1.1c-0.6-0.2-1.4-0.3-2.2-0.3c-1.6,0-3,0.5-4.1,1.6
		c-1.1,1.1-1.7,2.5-1.7,4.2s0.5,3.1,1.6,4.2c1.1,1,2.4,1.6,3.9,1.6c1.5,0,2.8-0.3,3.9-1V8.7z"/>
</g>
<rect y="28" width="69" height="1"/>
</svg>
