<svg version="1.1" xmlns="http://www.w3.org/2000/svg" xmlns:xlink="http://www.w3.org/1999/xlink" viewBox="0 0 185 34" enable-background="new 0 0 185 34" xml:space="preserve">
	<g fill="rgba(255,255,255,0.1)">
		<path fill="#be5097" d="M1.7,26.4c-0.3,0-0.7-0.2-1-0.4c-0.4-0.2-0.6-0.5-0.7-0.8c0-0.2,0-0.6,0.1-0.9c0.1-0.4,0.2-0.8,0.3-1.2s0.2-0.8,0.3-1.1c0.1-0.4,0.2-0.6,0.2-0.8c0.2,0,0.6,0.1,0.9,0.2s0.8,0.3,1.2,0.5c0.4,0.2,0.8,0.5,1.1,0.7c0.4,0.3,0.6,0.6,0.8,0.8c-0.2,0.4-0.4,0.8-0.7,1.2c-0.3,0.4-0.6,0.7-0.9,1C3,25.8,2.7,26,2.4,26.2C2.1,26.3,1.9,26.4,1.7,26.4z"/>
		<path fill="#fff" d="M9.1,34c-0.5-0.2-0.8-0.6-0.9-1.2c-0.1-0.5-0.4-1-1-1.3c0.2-1,0.3-2.1,0.5-3.1c0.2-1.1,0.5-2.3,0.8-3.6c0.3-1.3,0.7-2.9,1.2-4.7c0.5-1.8,1.1-4,1.8-6.5c-0.7,0-1.2,0-1.6,0s-0.8,0-1.1,0.1c-0.1-0.1-0.1-0.2-0.2-0.3c-0.1-0.1-0.1-0.3-0.1-0.4c0.2-0.1,0.6-0.2,1.2-0.3c0.6-0.1,1.3-0.2,2.1-0.4c0.5-1.5,1-2.9,1.7-4.2c0.6-1.2,1.3-2.3,2-3.2c0.7-0.9,1.5-1.5,2.3-2c0.8-0.5,1.6-0.7,2.5-0.7c0.2,0,0.5,0,0.7,0c0.2,0,0.4,0,0.5,0C21.7,2.2,22,2.1,22.3,2c0.3-0.1,0.6-0.2,0.8-0.2c0.2,0,0.6,0.1,0.9,0.4c-0.2,0.3-0.3,0.7-0.5,1.2c-0.2,0.5-0.3,1-0.5,1.4c-0.5,1.5-1,2.5-1.6,2.9c-0.2,0-0.3-0.3-0.4-0.9c0-0.4-0.1-0.8-0.2-1.2c-0.1-0.2-0.1-0.3-0.2-0.5c0-0.1,0-0.3,0-0.5c0-0.1,0-0.3,0-0.4c0-0.2,0.1-0.5,0.1-0.9c-0.3,0-0.7,0.2-1.1,0.6s-0.9,1-1.3,1.8c-0.5,0.8-0.9,1.7-1.4,2.8c-0.5,1.1-0.9,2.2-1.3,3.5h2.6c0.1,0.1,0.2,0.3,0.3,0.6c0.1,0.3,0.1,0.7,0.1,1h-3.3c-0.8,2.3-1.5,4.5-2.2,6.5c-0.7,2.1-1.3,4-1.8,5.8c-0.5,1.8-1,3.3-1.4,4.7C9.6,32.1,9.3,33.2,9.1,34z"/>
		<path fill="#fff" d="M27.2,12.9c0.2,0,0.4,0,0.7,0.1c0.3,0.1,0.5,0.2,0.7,0.3c0.2,0.1,0.4,0.2,0.6,0.4c0.2,0.1,0.2,0.2,0.2,0.3c-0.4,0.9-0.8,1.7-1.1,2.6c-0.3,0.9-0.6,1.7-0.9,2.5c-0.2,0.8-0.4,1.5-0.6,2.2c-0.1,0.7-0.2,1.3-0.2,1.8c0,0.6,0.1,1,0.2,1.4c0.1,0.4,0.3,0.6,0.6,0.8c-0.2,0.2-0.6,0.3-0.9,0.4c-0.4,0.1-0.7,0.2-1,0.2c-1.1,0-1.6-0.8-1.6-2.3c0-1.2,0.4-2.7,1.2-4.8c-0.4,0.9-0.9,1.8-1.4,2.6S22.5,23,22,23.6s-1.1,1.1-1.7,1.5c-0.6,0.4-1.1,0.6-1.5,0.7c-0.8,0-1.4-0.3-1.8-1c-0.5-0.7-0.7-1.6-0.7-2.6c0-1.1,0.2-2.3,0.7-3.6c0.5-1.3,1.1-2.4,1.9-3.5s1.6-2,2.5-2.7c0.9-0.7,1.8-1.1,2.6-1.1c0.2,0.1,0.4,0.2,0.7,0.4s0.5,0.4,0.7,0.6c0.2,0.2,0.4,0.5,0.6,0.7c0.2,0.3,0.3,0.5,0.3,0.7c-0.8,0.1-1.6,0.5-2.5,1.2c-0.9,0.7-1.6,1.5-2.3,2.4c-0.7,0.9-1.3,1.9-1.7,3c-0.4,1.1-0.7,2.1-0.7,3c0,0.4,0.1,0.6,0.4,0.7c0.6-0.1,1.3-0.6,2-1.5s1.7-2.2,2.8-4.1c0.2-0.4,0.4-0.8,0.7-1.2c0.3-0.4,0.5-0.9,0.8-1.4c0.3-0.5,0.5-1,0.8-1.5C26.7,13.9,26.9,13.4,27.2,12.9z"/>
		<path fill="#fff" d="M40.4,13.1c0,0.4-0.1,0.8-0.2,1.2c-0.1,0.4-0.2,0.8-0.4,1.1c-0.2,0.3-0.3,0.6-0.5,0.8c-0.2,0.2-0.4,0.3-0.5,0.3c-0.2,0-0.4-0.2-0.4-0.5c0-0.1,0-0.2,0.1-0.3c0.1-0.1,0.1-0.3,0.2-0.4c0.1-0.2,0.1-0.3,0.2-0.5c0.1-0.2,0.1-0.3,0.1-0.4c0-0.3-0.1-0.5-0.2-0.7c-0.1-0.2-0.3-0.3-0.5-0.3c-0.8,0-1.4,0.5-1.9,1.5c-0.4,1-0.6,2.5-0.6,4.5c0,0.2,0,0.3,0,0.4c0.4,0,0.8,0,1.1,0s0.7,0,1,0c0,0,0,0.1,0,0.2c0,0.2,0,0.3-0.1,0.4c-0.5,0.1-0.8,0.2-1.1,0.3c-0.3,0.1-0.5,0.1-0.6,0.2c-0.1,0.1-0.2,0.1-0.3,0.2c0,0.1,0,0.2,0,0.3c0,0.2,0,0.3,0,0.5c0,0.2,0,0.4,0,0.6c0,1.7-0.5,3.1-1.4,4.1c-0.9,1-2.2,1.6-3.9,1.8c-0.3,0-0.6-0.1-0.9-0.2c-0.3-0.1-0.6-0.3-0.9-0.5c-0.3-0.2-0.5-0.5-0.7-0.7c-0.2-0.3-0.3-0.6-0.4-0.8c0-0.8,0.2-1.5,0.5-2.2c0.3-0.7,0.8-1.3,1.3-1.9c0.6-0.5,1.2-1,2-1.3s1.6-0.5,2.5-0.5c0-0.5-0.1-1-0.2-1.5c-0.1-0.5-0.2-1-0.3-1.4c-0.1-0.5-0.2-0.9-0.3-1.3c-0.1-0.4-0.2-0.9-0.2-1.3c0-0.5,0.1-1.1,0.3-1.6s0.5-1,0.9-1.5c0.4-0.5,0.8-0.9,1.3-1.2s1-0.6,1.5-0.7c0.2,0.1,0.5,0.2,0.9,0.5c0.4,0.3,0.7,0.6,1.1,1c0.4,0.4,0.7,0.7,1,1.1C40.2,12.5,40.3,12.8,40.4,13.1z M30.4,27c0.5-0.2,0.9-0.5,1.4-0.9c0.4-0.4,0.8-0.8,1.1-1.3c0.3-0.5,0.6-1,0.8-1.6c0.2-0.5,0.3-1.1,0.3-1.6c-0.4,0.1-0.9,0.2-1.3,0.6c-0.5,0.3-0.9,0.7-1.4,1.1s-0.8,0.9-1.1,1.4c-0.3,0.5-0.4,0.9-0.4,1.2C29.7,26.3,30,26.7,30.4,27z"/>
		<path fill="#fff" d="M39.3,24.7c0-0.7,0.1-1.5,0.2-2.5s0.4-2,0.6-3.1c0.3-1.1,0.6-2.2,1-3.4c0.4-1.2,0.8-2.4,1.3-3.6c0.4-1.1,0.9-2.2,1.4-3.3c0.5-1.1,1.1-2.2,1.8-3.2c0.6-1.1,1.3-2.1,2-3c0.7-1,1.4-1.8,2.1-2.6c0.3,0,0.7,0,1.1,0.1c0.4,0.1,0.7,0.2,1.1,0.3c0.4,0.1,0.7,0.3,1,0.5c0.3,0.2,0.5,0.4,0.7,0.5c-1.5,1.6-2.9,3.1-4.1,4.7c-1.2,1.6-2.2,3.1-2.9,4.5c-0.4,0.8-0.7,1.5-1.1,2.2c-0.3,0.7-0.6,1.3-0.9,2c-0.3,0.7-0.5,1.3-0.7,2c-0.2,0.7-0.4,1.4-0.6,2.1c3.9-5,6.8-7.5,8.7-7.5c0.5,0,1.1,0.2,1.7,0.5c0.6,0.3,1.1,0.8,1.6,1.4c-0.6,0.7-1.3,1.5-1.9,2.5c-0.7,1-1.3,2-1.8,2.9c-0.6,1-1,1.9-1.4,2.7c-0.4,0.8-0.5,1.5-0.5,1.9c0,0.2,0,0.3,0.1,0.4c0.1,0.1,0.2,0.1,0.4,0.1c0.3,0,0.5,0,0.7-0.1s0.3-0.1,0.3-0.1c0.1,0.2,0.2,0.3,0.2,0.3c0,0.1,0,0.1,0,0.2c0,0.1-0.1,0.2-0.4,0.3s-0.5,0.3-0.9,0.5s-0.7,0.3-1,0.4s-0.6,0.2-0.7,0.2c-0.2,0-0.4-0.1-0.6-0.2c-0.2-0.1-0.4-0.3-0.5-0.4c-0.2-0.2-0.3-0.4-0.4-0.6c-0.1-0.2-0.1-0.5-0.1-0.7c0-0.3,0.1-0.8,0.3-1.4c0.2-0.6,0.4-1.3,0.7-2.1c0.3-0.8,0.7-1.7,1.1-2.6c0.4-1,0.9-1.9,1.4-2.9c0-0.1,0-0.1-0.1-0.1c-0.1,0-0.2,0.1-0.5,0.2c-0.3,0.2-0.5,0.3-0.7,0.5c-0.7,0.5-1.5,1.2-2.2,2c-0.7,0.8-1.5,1.7-2.2,2.6c-0.7,1-1.4,2-2,3c-0.6,1.1-1.2,2.1-1.6,3.2c-0.1,0.1-0.2,0.3-0.3,0.4c-0.1,0.1-0.2,0.2-0.3,0.2c-0.1,0-0.1-0.1-0.3-0.2c-0.1-0.1-0.2-0.3-0.3-0.5s-0.2-0.4-0.3-0.7C39.4,25.1,39.3,24.9,39.3,24.7z"/>
		<path fill="#fff" d="M54.1,23.2c0-0.2,0-0.4,0-0.7c0-0.3,0.1-0.6,0.2-1.1c0.1-0.5,0.2-1,0.3-1.7c0.1-0.6,0.3-1.4,0.5-2.3c0-0.2,0.1-0.5,0.3-1c0.1-0.4,0.3-0.9,0.6-1.4c0.2-0.5,0.5-1,0.9-1.4s0.7-0.8,1.2-1c0.3,0.1,0.8,0.3,1.4,0.6s1.1,0.8,1.5,1.4c-0.5,0.5-0.9,1.1-1.2,1.6c-0.3,0.5-0.6,1.1-0.9,1.6c-0.3,0.6-0.5,1.2-0.7,1.8c-0.2,0.6-0.5,1.2-0.7,1.9c-0.2,0.6-0.4,1.2-0.6,1.8c-0.2,0.6-0.3,1.1-0.3,1.6c0,0.4,0,0.6,0,0.8c0,0.2-0.1,0.2-0.2,0.2c-0.1,0-0.2-0.1-0.5-0.2c-0.2-0.1-0.5-0.3-0.7-0.5c-0.3-0.2-0.5-0.5-0.7-0.8C54.2,24,54.1,23.6,54.1,23.2z M59.9,10c0-0.1,0-0.3,0.1-0.5c-0.1-0.1-0.2-0.3-0.3-0.5c-0.1-0.2-0.1-0.4-0.1-0.5c0-0.2,0-0.4,0.1-0.7c0.1-0.3,0.1-0.7,0.2-1c0.1-0.4,0.2-0.7,0.3-1.1c0.1-0.4,0.2-0.8,0.4-1.1c0.2,0,0.5,0.1,0.9,0.2c0.4,0.1,0.7,0.3,1.1,0.5c0.4,0.2,0.7,0.4,1,0.7s0.5,0.5,0.7,0.7c-0.2,0.2-0.5,0.5-0.9,0.9c-0.4,0.4-0.7,0.8-1.1,1.2C62,9.2,61.6,9.6,61.4,10c-0.3,0.4-0.5,0.7-0.5,0.8c-0.2,0-0.5-0.1-0.6-0.3C60,10.3,59.9,10.1,59.9,10z"/>
		<path fill="#fff" d="M63.8,26.3c-1.2-0.1-2.1-0.6-2.8-1.5c-0.7-0.9-1-2-1-3.4c0-0.8,0.1-1.7,0.4-2.5c0.2-0.9,0.6-1.7,1-2.5c0.4-0.8,1-1.6,1.6-2.3c0.6-0.7,1.3-1.4,2-1.9c1.1-0.8,2.2-1.2,3.1-1.2c0.6,0.3,1.3,1.1,1.9,2.2c0.1,0,0.2,0,0.3,0c0.1,0,0.2,0,0.3,0c1.1,0,1.6,1,1.6,2.9c0,1.3-0.2,2.5-0.6,3.6c-0.4,1.1-1,2.2-1.7,3.1s-1.6,1.7-2.6,2.4C66.1,25.6,65,26,63.8,26.3z M65.3,16.7c-0.3,0.5-0.7,1-1,1.5c-0.3,0.5-0.6,1.1-0.8,1.7c-0.2,0.6-0.4,1.1-0.5,1.6c-0.1,0.5-0.2,1-0.2,1.4c0,0.5,0.1,1,0.2,1.4c0.2,0.4,0.3,0.7,0.5,0.8c0.9-0.2,1.8-0.6,2.5-1.1s1.4-1.3,2-2.1c0.6-0.8,1-1.8,1.3-2.8c0.3-1.1,0.5-2.2,0.5-3.4c0-0.5,0-0.9-0.1-1.2c-0.1-0.3-0.2-0.6-0.3-0.8c-0.9,0.3-1.7,0.7-2.4,1.3C66.4,15.4,65.8,16.1,65.3,16.7z"/>
		<path fill="#fff" d="M77.5,10.5c0.5,0.2,1,0.5,1.5,1.1c0.5,0.6,0.8,1.2,1,1.8c-0.2,0.5-0.6,1.2-1,2c-0.5,0.8-0.9,1.6-1.4,2.4c-0.5,0.8-0.9,1.6-1.3,2.3s-0.6,1.3-0.7,1.8c0.3-0.3,0.7-0.7,1.1-1.2s0.8-0.9,1.2-1.4c0.4-0.5,0.7-0.9,1.1-1.2c0.3-0.4,0.6-0.7,0.8-0.8c0.4-0.4,0.8-0.9,1.4-1.4c0.5-0.5,1.1-1,1.7-1.5c0.6-0.5,1.2-0.9,1.8-1.2s1.1-0.5,1.6-0.5c0.5,0,1,0.2,1.3,0.5c0.4,0.4,0.6,0.7,0.8,1.1c0,0-0.1,0.1-0.2,0.2c-0.2,0.1-0.4,0.3-0.7,0.6c-0.3,0.4-0.6,0.9-1,1.5s-0.7,1.3-1,2.1s-0.6,1.5-0.8,2.3c-0.2,0.8-0.3,1.5-0.3,2.1c0,0.5,0.1,0.8,0.2,1S84.7,24,85,24c0.2,0,0.5-0.1,0.7-0.2c0.2-0.1,0.4-0.2,0.6-0.2c0.1,0,0.1,0.1,0.2,0.3c0,0.1,0.1,0.2,0.1,0.4c-0.2,0.1-0.4,0.3-0.6,0.4c-0.2,0.1-0.5,0.3-0.7,0.4c-0.2,0.1-0.5,0.2-0.7,0.3c-0.2,0.1-0.4,0.1-0.6,0.1c-0.6,0-1.1-0.1-1.4-0.3c-0.4-0.2-0.7-0.4-0.9-0.7c-0.2-0.3-0.4-0.6-0.4-1C81,23.2,81,22.8,81,22.3c0-0.2,0-0.5,0.1-0.8s0.1-0.7,0.2-1.1c0.1-0.4,0.3-0.9,0.5-1.5c0.2-0.6,0.5-1.3,0.9-2.1c0,0-0.3,0.1-0.8,0.4c-0.5,0.3-1.1,0.7-1.6,1.3c-1,0.9-1.8,1.8-2.6,2.7c-0.8,0.9-1.5,1.9-2.3,3c-0.4,0.6-0.8,1.2-1.2,1.6c-0.3,0.4-0.6,0.7-0.9,0.9c-0.4-0.2-0.7-0.6-0.9-1c-0.2-0.4-0.4-0.9-0.5-1.4c0-0.4,0.1-0.9,0.2-1.5s0.3-1.2,0.5-2c0.2-0.7,0.4-1.5,0.7-2.3c0.3-0.8,0.6-1.6,0.9-2.4c0.8-1.8,1.5-3.2,2.1-4.2C76.9,11.1,77.3,10.5,77.5,10.5z"/>
	</g>
	<g fill="rgba(255,255,255,0.1)">
		<path d="M101.8,11.9l1.8-5.8h1.2l1.8,5.8l2-5.8h1.5l-2.8,8h-1.3l-1.7-5.5h-0.1l-1.7,5.5h-1.3l-2.8-8h1.5L101.8,11.9z"/>
		<path d="M112.4,14.2v-8h1.4v3.5h4V6.2h1.4v8h-1.4v-3.3h-4v3.3H112.4z"/>
		<path d="M129.2,13.1c-0.8,0.8-1.8,1.2-3,1.2c-1.2,0-2.2-0.4-3-1.2s-1.2-1.8-1.2-3c0-1.2,0.4-2.2,1.2-3s1.8-1.2,3-1.2c1.2,0,2.2,0.4,3,1.2s1.2,1.8,1.2,3C130.4,11.3,130,12.3,129.2,13.1z M128.2,8.1c-0.5-0.6-1.2-0.8-2-0.8s-1.5,0.3-2,0.8c-0.5,0.6-0.8,1.3-0.8,2.1s0.3,1.5,0.8,2.1c0.5,0.6,1.2,0.8,2,0.8s1.5-0.3,2-0.8s0.8-1.3,0.8-2.1S128.8,8.6,128.2,8.1z"/>
		<path d="M133.3,14.2v-8h1.4v6.7h3.7v1.3H133.3z"/>
		<path d="M146.5,6.2v1.3h-4.3v2.1h3.8v1.2h-3.8v2.1h4.4v1.3h-5.8v-8H146.5z"/>
		<path d="M159.9,6.2h1.4v8h-1.5l-4.5-5.8v5.8h-1.4v-8h1.4l4.7,6V6.2z"/>
		<path d="M170.2,6.2v1.3h-4.3v2.1h3.8v1.2h-3.8v2.1h4.4v1.3h-5.8v-8H170.2z"/>
		<path d="M175.7,11.9l1.8-5.8h1.2l1.8,5.8l2-5.8h1.5l-2.8,8h-1.3l-1.7-5.5h-0.1l-1.7,5.5h-1.3l-2.8-8h1.5L175.7,11.9z"/>
		<path d="M104.9,19.9v1.3h-4.3v2.1h3.8v1.2h-3.8v2.1h4.4v1.3h-5.8v-8H104.9z"/>
		<path d="M112.7,27.9l-2-3h-0.1l-2,3H107l2.8-4.1l-2.6-3.9h1.7l1.8,2.7h0.1l1.8-2.7h1.7l-2.6,3.9l2.8,4.1H112.7z"/>
		<path d="M122.2,20.6c0.6,0.5,0.8,1.2,0.8,2.2c0,1-0.3,1.7-0.9,2.1c-0.6,0.5-1.4,0.7-2.6,0.7h-1.4v2.4h-1.4v-8h2.8C120.7,19.9,121.6,20.2,122.2,20.6z M121.2,23.9c0.3-0.3,0.4-0.7,0.4-1.3s-0.2-0.9-0.5-1.2c-0.3-0.2-0.9-0.3-1.6-0.3h-1.4v3.2h1.6C120.4,24.4,121,24.2,121.2,23.9z"/>
		<path d="M131.4,19.9v1.3h-4.3v2.1h3.8v1.2h-3.8v2.1h4.4v1.3h-5.8v-8H131.4z"/>
		<path d="M140.8,22.5c0,1.3-0.6,2.2-1.7,2.5l2.1,2.9h-1.7l-1.9-2.7h-1.8v2.7h-1.4v-8h3c1.2,0,2.1,0.2,2.6,0.6C140.6,21,140.8,21.6,140.8,22.5z M139,23.7c0.3-0.2,0.4-0.6,0.4-1.1c0-0.5-0.1-0.9-0.4-1.1c-0.3-0.2-0.8-0.3-1.5-0.3h-1.7V24h1.7C138.2,24,138.7,23.9,139,23.7z"/>
		<path d="M143.9,19.9h1.4v8h-1.4V19.9z"/>
		<path d="M154.3,19.9v1.3H150v2.1h3.8v1.2H150v2.1h4.4v1.3h-5.8v-8H154.3z"/>
		<path d="M163.3,19.9h1.4v8h-1.5l-4.5-5.8v5.8h-1.4v-8h1.4l4.7,6V19.9z"/>
		<path d="M171.7,26.7c0.5,0,0.9-0.1,1.2-0.2c0.3-0.2,0.7-0.4,1.1-0.8l0.9,0.9c-0.8,0.9-1.9,1.4-3.1,1.4s-2.2-0.4-3-1.2s-1.2-1.8-1.2-3c0-1.2,0.4-2.2,1.2-3c0.8-0.8,1.8-1.2,3.1-1.2s2.3,0.5,3.1,1.4l-0.9,0.9c-0.4-0.4-0.7-0.6-1.1-0.8s-0.7-0.2-1.2-0.2c-0.8,0-1.5,0.3-2,0.8c-0.6,0.5-0.8,1.2-0.8,2s0.3,1.5,0.8,2C170.3,26.4,170.9,26.7,171.7,26.7z"/>
		<path d="M183.2,19.9v1.3H179v2.1h3.8v1.2H179v2.1h4.4v1.3h-5.8v-8H183.2z"/>
	</g>
</svg>