<svg version="1.1" xmlns="http://www.w3.org/2000/svg" xmlns:xlink="http://www.w3.org/1999/xlink" x="0px" y="0px" viewBox="0 0 337 27" enable-background="new 0 0 337 27" xml:space="preserve">
	<g fill="#ffffff">
		<path d="M13,5.5v20.7H7.3V5.5H0v-5h20.3v5H13z"/>
		<path d="M40.9,26.2l-2.4-5.5H27.7l-2.4,5.5h-6.1L30.3,0.6h5.5L47,26.2H40.9z M33.1,8.2l-3.2,7.5h6.4L33.1,8.2z"/>
		<path d="M67.9,0.6h5.7v25.7h-5.7L55.7,10.2v16.1h-5.7V0.6h5.4l12.6,16.5V0.6z"/>
		<path d="M98.2,26.2l-2.4-5.5H85.1l-2.4,5.5h-6.1L87.7,0.6h5.5l11.1,25.7H98.2z M90.5,8.2l-3.2,7.5h6.4L90.5,8.2z"/>
		<path d="M107.1,25.6c-0.6-0.6-0.9-1.4-0.9-2.3c0-0.9,0.3-1.7,0.9-2.3c0.6-0.6,1.4-0.9,2.3-0.9c0.9,0,1.7,0.3,2.3,0.9c0.6,0.6,0.9,1.4,0.9,2.3c0,0.9-0.3,1.7-0.9,2.3c-0.6,0.6-1.4,0.9-2.3,0.9C108.5,26.5,107.8,26.2,107.1,25.6z"/>
		<path d="M144.9,2.1c-0.3,0-0.8,0.1-1.5,0.3s-1.2,0.4-1.5,0.6c-0.4,0.3-0.7,0.9-0.9,1.7c-0.1,0.8-0.2,1.9-0.2,3.2v18.6h-1.6L123.8,5.7v13.1c0,1.5,0.1,2.6,0.3,3.4c0.2,0.8,0.5,1.4,0.9,1.7c0.3,0.3,0.8,0.5,1.7,0.7c0.9,0.2,1.4,0.3,1.7,0.4v1.3h-10.4V25c0.3,0,0.9-0.1,1.6-0.3s1.2-0.4,1.4-0.6c0.4-0.3,0.7-0.8,0.9-1.5s0.2-1.9,0.2-3.5V6.5c0-0.5-0.1-1.1-0.3-1.6s-0.4-1-0.8-1.3c-0.4-0.4-1-0.7-1.7-1c-0.7-0.3-1.3-0.4-1.8-0.5V0.8h7.3l14.3,19.4V8.1c0-1.5-0.1-2.6-0.3-3.4c-0.2-0.8-0.5-1.3-0.8-1.6c-0.3-0.2-0.9-0.4-1.6-0.7c-0.8-0.2-1.3-0.3-1.7-0.4V0.8h10.3V2.1z"/>
		<path d="M168.4,18.8l-0.5,7.5h-21.1V25c0.4,0,0.8-0.1,1.4-0.2c0.6-0.1,1-0.2,1.2-0.2c0.4-0.2,0.6-0.4,0.8-0.7s0.2-0.7,0.2-1.1V4.5c0-0.4-0.1-0.7-0.2-1c-0.1-0.3-0.4-0.6-0.8-0.7c-0.3-0.2-0.8-0.3-1.3-0.4c-0.5-0.1-1-0.2-1.3-0.2V0.8h19.7v6.1h-1.3c-0.2-0.9-0.8-1.9-1.6-2.9s-1.6-1.6-2.3-1.7c-0.4,0-0.8-0.1-1.3-0.1s-1.1,0-1.8,0h-4v10.1h2.9c0.9,0,1.6-0.1,2-0.3c0.4-0.2,0.8-0.5,1.1-0.9c0.3-0.3,0.5-0.8,0.7-1.4c0.2-0.6,0.3-1.1,0.4-1.6h1.3v10h-1.3c0-0.6-0.2-1.2-0.4-1.8c-0.2-0.6-0.4-1.1-0.7-1.4c-0.4-0.5-0.8-0.8-1.3-0.9c-0.5-0.1-1.1-0.2-1.9-0.2h-2.9v7.6c0,0.8,0.1,1.4,0.2,1.8c0.1,0.4,0.3,0.8,0.6,1c0.3,0.2,0.7,0.4,1.3,0.4c0.5,0.1,1.3,0.1,2.3,0.1c0.4,0,0.9,0,1.6,0s1.2,0,1.6-0.1c0.5,0,0.9-0.1,1.4-0.3s0.8-0.3,1-0.5c0.5-0.6,1.1-1.4,1.7-2.6c0.6-1.2,1-2,1.2-2.6H168.4z"/>
		<path d="M205.6,2.1c-0.3,0-0.6,0.1-1,0.2s-0.8,0.3-1.1,0.5c-0.4,0.3-0.8,0.6-1,0.9s-0.5,0.8-0.7,1.4c-0.8,2.8-1.8,6-3,9.7c-1.1,3.7-2.3,7.6-3.6,11.8h-1.7L187.1,7l-6.7,19.6h-1.6c-1.2-4.2-2.4-8.5-3.7-13c-1.3-4.5-2.1-7.5-2.5-9c-0.1-0.4-0.3-0.7-0.5-1c-0.2-0.3-0.5-0.5-0.9-0.8c-0.3-0.2-0.6-0.4-1-0.5s-0.8-0.2-1.1-0.2V0.8h10.4v1.3c-0.9,0-1.7,0.1-2.3,0.3c-0.6,0.1-1,0.4-1,0.7c0,0.1,0,0.3,0.1,0.5s0.1,0.4,0.1,0.5c0.3,1.1,0.8,2.8,1.5,5.2c0.7,2.4,1.7,6.1,3.1,10.9l6.3-18.9h1.8l6.4,19.3c0.9-3,1.6-5.6,2.2-7.8c0.6-2.2,1.1-4.1,1.5-5.7c0.3-1.1,0.5-1.9,0.5-2.3c0.1-0.4,0.1-0.8,0.1-1c0-0.4-0.3-0.7-0.8-1c-0.6-0.3-1.5-0.5-2.7-0.6V0.8h9.2V2.1z"/>
		<path d="M222.6,14.6c0.5,0.6,0.9,1.3,1.2,2s0.4,1.5,0.4,2.5c0,2.2-0.8,4.1-2.5,5.6c-1.7,1.5-3.7,2.2-6.2,2.2c-1.1,0-2.3-0.2-3.4-0.5s-2.1-0.8-2.9-1.3l-0.8,1.3H207l-0.3-8.7h1.5c0.3,1.1,0.6,2,1,2.9s0.9,1.7,1.6,2.4c0.6,0.7,1.3,1.3,2.2,1.7c0.8,0.4,1.8,0.6,2.9,0.6c0.8,0,1.5-0.1,2.2-0.3c0.6-0.2,1.1-0.5,1.5-0.9c0.4-0.4,0.7-0.9,0.9-1.4s0.3-1.1,0.3-1.8c0-1-0.3-2-0.9-2.8c-0.6-0.9-1.4-1.5-2.6-2c-0.8-0.3-1.7-0.7-2.7-1c-1-0.4-1.9-0.7-2.6-1.1c-1.4-0.6-2.5-1.5-3.3-2.5s-1.2-2.4-1.2-4.1c0-1,0.2-1.9,0.6-2.7s1-1.6,1.7-2.2c0.7-0.6,1.5-1.1,2.5-1.5c0.9-0.4,1.9-0.5,3-0.5c1.2,0,2.2,0.2,3.1,0.5c0.9,0.4,1.8,0.8,2.5,1.3l0.7-1.2h1.4l0.1,8.4h-1.5c-0.3-1-0.6-1.9-0.9-2.8c-0.3-0.9-0.8-1.7-1.3-2.4c-0.5-0.7-1.1-1.2-1.9-1.7c-0.7-0.4-1.6-0.6-2.7-0.6c-1.1,0-2.1,0.4-2.9,1.1s-1.2,1.6-1.2,2.7c0,1.1,0.3,2,0.8,2.7s1.3,1.3,2.2,1.8c0.9,0.4,1.7,0.8,2.6,1.1s1.7,0.6,2.4,1c0.7,0.3,1.4,0.7,2.1,1.1C221.6,13.6,222.1,14.1,222.6,14.6z"/>
	</g>
	<g fill="rgba(255,255,255,0.4)">
		<path d="M244.9,7.8l2-6.5h1.4l2,6.5l2.3-6.5h1.6l-3.1,9h-1.5l-1.9-6.2h-0.1l-1.9,6.2h-1.5l-3.1-9h1.6L244.9,7.8z"/>
		<path d="M256.8,10.3v-9h1.5v3.9h4.5V1.4h1.5v9h-1.5V6.7h-4.5v3.7H256.8z"/>
		<path d="M275.6,9.1c-0.9,0.9-2,1.3-3.4,1.3c-1.3,0-2.5-0.4-3.4-1.3c-0.9-0.9-1.4-2-1.4-3.3c0-1.3,0.5-2.4,1.4-3.3s2-1.3,3.4-1.3c1.3,0,2.5,0.4,3.4,1.3s1.4,2,1.4,3.3C277,7.1,276.5,8.2,275.6,9.1z M274.5,3.5c-0.6-0.6-1.4-1-2.3-1c-0.9,0-1.6,0.3-2.3,1s-0.9,1.4-0.9,2.3s0.3,1.7,0.9,2.3c0.6,0.6,1.4,1,2.3,1c0.9,0,1.6-0.3,2.3-1c0.6-0.6,0.9-1.4,0.9-2.3S275.1,4.1,274.5,3.5z"/>
		<path d="M280.2,10.3v-9h1.5v7.5h4.1v1.4H280.2z"/>
		<path d="M295,1.4v1.4h-4.8v2.4h4.3v1.3h-4.3v2.4h4.9v1.4h-6.5v-9H295z"/>
		<path d="M310,1.4h1.5v9h-1.6l-5.1-6.6v6.6h-1.5v-9h1.5l5.2,6.7V1.4z"/>
		<path d="M321.6,1.4v1.4h-4.8v2.4h4.3v1.3h-4.3v2.4h4.9v1.4h-6.5v-9H321.6z"/>
		<path d="M327.7,7.8l2-6.5h1.4l2,6.5l2.3-6.5h1.6l-3.1,9h-1.5l-1.9-6.2h-0.1l-1.9,6.2H327l-3.1-9h1.6L327.7,7.8z"/>
		<path d="M248.4,16.8v1.4h-4.8v2.4h4.3v1.3h-4.3v2.4h4.9v1.4h-6.5v-9H248.4z"/>
		<path d="M257.1,25.8l-2.2-3.4h-0.1l-2.2,3.4h-1.9l3.1-4.6l-2.9-4.4h1.9l2,3h0.1l2-3h1.9l-2.9,4.4l3.1,4.6H257.1z"/>
		<path d="M267.8,17.6c0.6,0.5,0.9,1.3,0.9,2.4s-0.3,1.9-1,2.4c-0.6,0.5-1.6,0.8-2.9,0.8h-1.6v2.6h-1.5v-9h3.1C266.1,16.8,267.1,17,267.8,17.6z M266.7,21.3c0.3-0.3,0.5-0.8,0.5-1.4s-0.2-1.1-0.6-1.3c-0.4-0.3-1-0.4-1.8-0.4h-1.5v3.6h1.8C265.8,21.8,266.4,21.6,266.7,21.3z"/>
		<path d="M278.1,16.8v1.4h-4.8v2.4h4.3v1.3h-4.3v2.4h4.9v1.4h-6.5v-9H278.1z"/>
		<path d="M288.6,19.7c0,1.5-0.6,2.4-1.9,2.8l2.4,3.3h-1.9l-2.1-3h-2v3h-1.5v-9h3.3c1.4,0,2.4,0.2,2.9,0.7S288.6,18.7,288.6,19.7zM286.6,21c0.3-0.3,0.5-0.7,0.5-1.3s-0.2-1-0.5-1.2c-0.3-0.2-0.9-0.3-1.7-0.3H283v3.2h1.9C285.7,21.4,286.3,21.2,286.6,21z"/>
		<path d="M292.1,16.8h1.5v9h-1.5V16.8z"/>
		<path d="M303.7,16.8v1.4h-4.8v2.4h4.3v1.3h-4.3v2.4h4.9v1.4h-6.5v-9H303.7z"/>
		<path d="M313.8,16.8h1.5v9h-1.6l-5.1-6.6v6.6h-1.5v-9h1.5l5.2,6.7V16.8z"/>
		<path d="M323.2,24.4c0.5,0,1-0.1,1.3-0.3c0.4-0.2,0.8-0.5,1.2-0.8l1,1c-1,1.1-2.1,1.6-3.5,1.6c-1.4,0-2.5-0.4-3.4-1.3c-0.9-0.9-1.3-2-1.3-3.3c0-1.3,0.5-2.4,1.4-3.3c0.9-0.9,2.1-1.3,3.5-1.3c1.4,0,2.6,0.5,3.5,1.5l-1,1.1c-0.4-0.4-0.8-0.7-1.2-0.9c-0.4-0.2-0.8-0.2-1.3-0.2c-0.9,0-1.7,0.3-2.3,0.9c-0.6,0.6-0.9,1.3-0.9,2.2s0.3,1.7,0.9,2.3C321.6,24.1,322.4,24.4,323.2,24.4z"/>
		<path d="M336.2,16.8v1.4h-4.8v2.4h4.3v1.3h-4.3v2.4h4.9v1.4h-6.5v-9H336.2z"/>
	</g>
</svg>